<svg xmlns="http://www.w3.org/2000/svg" width="298" height="230" viewBox="0 0 298 230">
  <metadata><?xpacket begin="﻿" id="W5M0MpCehiHzreSzNTczkc9d"?>
<x:xmpmeta xmlns:x="adobe:ns:meta/" x:xmptk="Adobe XMP Core 5.6-c138 79.159824, 2016/09/14-01:09:01        ">
   <rdf:RDF xmlns:rdf="http://www.w3.org/1999/02/22-rdf-syntax-ns#">
      <rdf:Description rdf:about=""/>
   </rdf:RDF>
</x:xmpmeta>
                                                                                                    
                                                                                                    
                                                                                                    
                                                                                                    
                                                                                                    
                                                                                                    
                                                                                                    
                                                                                                    
                                                                                                    
                                                                                                    
                                                                                                    
                                                                                                    
                                                                                                    
                                                                                                    
                                                                                                    
                                                                                                    
                                                                                                    
                                                                                                    
                                                                                                    
                                                                                                    
                           
<?xpacket end="w"?></metadata>
<defs>
    <style>
      .cls-1 {
        fill: #3c4d5f;
        stroke: #101820;
        stroke-width: 1px;
        fill-rule: evenodd;
      }
    </style>
  </defs>
  <path class="cls-1" d="M30.875,158.177c12.628,0,18.807-6.636,24.264-12.491,4.558-4.9,8.6-9.187,16.067-10.1v91.342A3.05,3.05,0,0,0,74.234,230h93.294a3.045,3.045,0,0,0,3.019-3.07c0-12.283-6.405-18.416-12.054-23.83-5.592-5.354-10.417-9.977-10.417-20.137,0-16.952,11.943-25.19,36.523-25.19s36.519,8.234,36.519,25.19c0,10.16-4.829,14.787-10.413,20.137-5.653,5.414-12.054,11.547-12.054,23.83a3.049,3.049,0,0,0,3.024,3.07h93.306a3.052,3.052,0,0,0,3.028-3.07V132.317a3.049,3.049,0,0,0-3.028-3.066c-12.112,0-18.163,6.5-23.5,12.224-5.284,5.667-9.843,10.569-19.861,10.569-16.716,0-24.847-12.116-24.847-37.044s8.128-37.043,24.847-37.043c10.018,0,14.577,4.9,19.861,10.572,5.334,5.73,11.385,12.225,23.5,12.225a3.053,3.053,0,0,0,3.028-3.071V3.071A3.048,3.048,0,0,0,294.981.009H74.238a3.044,3.044,0,0,0-3.02,3.062V94.409C63.743,93.493,59.71,89.2,55.152,84.3,49.7,78.448,43.516,71.812,30.888,71.812c-14.1,0-30.9,7.493-30.9,43.185S16.79,158.177,30.875,158.177Z"/>
</svg>
