<svg xmlns="http://www.w3.org/2000/svg" width="230" height="230" viewBox="0 0 230 230">
  <metadata><?xpacket begin="﻿" id="W5M0MpCehiHzreSzNTczkc9d"?>
<x:xmpmeta xmlns:x="adobe:ns:meta/" x:xmptk="Adobe XMP Core 5.6-c138 79.159824, 2016/09/14-01:09:01        ">
   <rdf:RDF xmlns:rdf="http://www.w3.org/1999/02/22-rdf-syntax-ns#">
      <rdf:Description rdf:about=""/>
   </rdf:RDF>
</x:xmpmeta>
                                                                                                    
                                                                                                    
                                                                                                    
                                                                                                    
                                                                                                    
                                                                                                    
                                                                                                    
                                                                                                    
                                                                                                    
                                                                                                    
                                                                                                    
                                                                                                    
                                                                                                    
                                                                                                    
                                                                                                    
                                                                                                    
                                                                                                    
                                                                                                    
                                                                                                    
                                                                                                    
                           
<?xpacket end="w"?></metadata>
<defs>
    <style>
      .cls-1 {
        fill: #3c4d5f;
        fill-rule: evenodd;
      }
    </style>
  </defs>
  <path class="cls-1" d="M0,226.94a3.071,3.071,0,0,0,3.071,3.071H97.673a3.067,3.067,0,0,0,3.063-3.071c0-12.284-6.5-18.418-12.225-23.831-5.671-5.356-10.564-9.98-10.564-20.141,0-16.953,12.111-25.193,37.037-25.193s37.033,8.235,37.033,25.193c0,10.161-4.9,14.789-10.559,20.141-5.733,5.413-12.224,11.547-12.224,23.831a3.07,3.07,0,0,0,3.067,3.071h94.619a3.073,3.073,0,0,0,3.07-3.071V132.321a3.07,3.07,0,0,0-3.07-3.067c-12.282,0-18.419,6.5-23.828,12.226-5.359,5.667-9.98,10.569-20.141,10.569-16.95,0-25.2-12.117-25.2-37.048s8.242-37.048,25.2-37.048c10.161,0,14.782,4.9,20.141,10.574,5.409,5.73,11.546,12.226,23.828,12.226a3.074,3.074,0,0,0,3.07-3.071V3.058A3.069,3.069,0,0,0,226.921,0H3.07A3.065,3.065,0,0,0,.008,3.058Z"/>
</svg>
