<svg xmlns="http://www.w3.org/2000/svg" width="298" height="230" viewBox="0 0 298 230">
  <metadata><?xpacket begin="﻿" id="W5M0MpCehiHzreSzNTczkc9d"?>
<x:xmpmeta xmlns:x="adobe:ns:meta/" x:xmptk="Adobe XMP Core 5.6-c138 79.159824, 2016/09/14-01:09:01        ">
   <rdf:RDF xmlns:rdf="http://www.w3.org/1999/02/22-rdf-syntax-ns#">
      <rdf:Description rdf:about=""/>
   </rdf:RDF>
</x:xmpmeta>
                                                                                                    
                                                                                                    
                                                                                                    
                                                                                                    
                                                                                                    
                                                                                                    
                                                                                                    
                                                                                                    
                                                                                                    
                                                                                                    
                                                                                                    
                                                                                                    
                                                                                                    
                                                                                                    
                                                                                                    
                                                                                                    
                                                                                                    
                                                                                                    
                                                                                                    
                                                                                                    
                           
<?xpacket end="w"?></metadata>
<defs>
    <style>
      .cls-1 {
        fill: #3c4d5f;
        stroke: #101820;
        stroke-width: 1px;
        fill-rule: evenodd;
      }
    </style>
  </defs>
  <path class="cls-1" d="M30.96,158.149c12.62,0,18.8-6.634,24.252-12.486,4.556-4.9,8.592-9.187,16.052-10.1v91.3a3.054,3.054,0,0,0,3.027,3.069h93.265a3.048,3.048,0,0,0,3.026-3.069c0-12.278-6.406-18.408-12.049-23.819-5.59-5.357-10.414-9.978-10.422-20.134,0-16.944,11.947-25.179,36.518-25.179s36.51,8.235,36.51,25.179c0,10.161-4.827,14.781-10.417,20.134-5.648,5.411-12.05,11.541-12.05,23.819a3.052,3.052,0,0,0,3.027,3.069h93.264a3.052,3.052,0,0,0,3.027-3.069V3.1A3.055,3.055,0,0,0,294.962.03H74.3A3.052,3.052,0,0,0,71.276,3.1V94.407c-7.464-.915-11.5-5.2-16.061-10.1-5.446-5.848-11.623-12.486-24.247-12.486-14.092,0-30.887,7.491-30.887,43.167S16.877,158.149,30.96,158.149Z"/>
</svg>
