<svg xmlns="http://www.w3.org/2000/svg" width="345" height="230" viewBox="0 0 345 230">
  <metadata><?xpacket begin="﻿" id="W5M0MpCehiHzreSzNTczkc9d"?>
<x:xmpmeta xmlns:x="adobe:ns:meta/" x:xmptk="Adobe XMP Core 5.6-c138 79.159824, 2016/09/14-01:09:01        ">
   <rdf:RDF xmlns:rdf="http://www.w3.org/1999/02/22-rdf-syntax-ns#">
      <rdf:Description rdf:about=""/>
   </rdf:RDF>
</x:xmpmeta>
                                                                                                    
                                                                                                    
                                                                                                    
                                                                                                    
                                                                                                    
                                                                                                    
                                                                                                    
                                                                                                    
                                                                                                    
                                                                                                    
                                                                                                    
                                                                                                    
                                                                                                    
                                                                                                    
                                                                                                    
                                                                                                    
                                                                                                    
                                                                                                    
                                                                                                    
                                                                                                    
                           
<?xpacket end="w"?></metadata>
<defs>
    <style>
      .cls-1 {
        fill: #3c4d5f;
        fill-rule: evenodd;
      }
    </style>
  </defs>
  <path class="cls-1" d="M342.655,230.01a2.34,2.34,0,0,0,2.339-2.337v-72a2.336,2.336,0,0,0-2.339-2.336c-9.352,0-14.026,4.943-18.152,9.3-4.076,4.316-7.6,8.046-15.342,8.046-12.908,0-19.189-9.221-19.189-28.192s6.275-28.192,19.189-28.192c7.736,0,11.266,3.73,15.342,8.04,4.126,4.36,8.784,9.3,18.14,9.3a0.025,0.025,0,0,1,.012,0,2.339,2.339,0,0,0,2.339-2.337v-72a2.339,2.339,0,0,0-2.339-2.337H273.084c0.694-5.77,3.961-8.879,7.695-12.4,4.461-4.211,9.516-8.98,9.513-18.727,0-10.877-5.707-23.844-32.889-23.844s-32.889,12.967-32.889,23.844c0,9.746,5.055,14.516,9.514,18.727,3.733,3.521,7,6.631,7.7,12.4H103.268q0.033-.274.073-0.54c0.828-5.427,4.006-8.45,7.621-11.861,4.462-4.211,9.517-8.98,9.514-18.727,0-10.877-5.708-23.844-32.89-23.844S54.7,12.961,54.7,23.838c0,9.746,5.054,14.516,9.513,18.727,3.733,3.521,7,6.631,7.7,12.4H2.335A2.341,2.341,0,0,0,0,57.3V227.673a2.343,2.343,0,0,0,2.339,2.337h340.32Z"/>
</svg>
