<svg xmlns="http://www.w3.org/2000/svg" width="230" height="230" viewBox="0 0 230 230">
  <metadata><?xpacket begin="﻿" id="W5M0MpCehiHzreSzNTczkc9d"?>
<x:xmpmeta xmlns:x="adobe:ns:meta/" x:xmptk="Adobe XMP Core 5.6-c138 79.159824, 2016/09/14-01:09:01        ">
   <rdf:RDF xmlns:rdf="http://www.w3.org/1999/02/22-rdf-syntax-ns#">
      <rdf:Description rdf:about=""/>
   </rdf:RDF>
</x:xmpmeta>
                                                                                                    
                                                                                                    
                                                                                                    
                                                                                                    
                                                                                                    
                                                                                                    
                                                                                                    
                                                                                                    
                                                                                                    
                                                                                                    
                                                                                                    
                                                                                                    
                                                                                                    
                                                                                                    
                                                                                                    
                                                                                                    
                                                                                                    
                                                                                                    
                                                                                                    
                                                                                                    
                           
<?xpacket end="w"?></metadata>
<defs>
    <style>
      .cls-1 {
        fill: #3c4d5f;
        fill-rule: evenodd;
      }
    </style>
  </defs>
  <path class="cls-1" d="M-0.057,142.48c0,27.161,12.973,32.864,23.85,32.864,9.749,0,14.519-5.048,18.731-9.507,3.519-3.725,6.636-6.99,12.4-7.69v69.526a2.334,2.334,0,0,0,2.332,2.337H227.673a2.335,2.335,0,0,0,2.337-2.337V57.281a2.337,2.337,0,0,0-2.337-2.337H158.141c0.7-5.77,3.962-8.881,7.693-12.4,4.457-4.209,9.508-8.982,9.508-18.73,0-10.878-5.7-23.847-32.873-23.847S109.6,12.933,109.6,23.811c0,9.748,5.055,14.521,9.511,18.73,3.728,3.525,6.994,6.635,7.693,12.4H57.256a2.334,2.334,0,0,0-2.331,2.337v69.528c-5.768-.7-8.884-3.962-12.4-7.692-4.213-4.456-8.983-9.508-18.732-9.508C12.917,109.609-.057,115.31-0.057,142.48Z"/>
</svg>
