<?xml version="1.0" encoding="UTF-8"?>
<!DOCTYPE svg PUBLIC "-//W3C//DTD SVG 1.1//EN" "http://www.w3.org/Graphics/SVG/1.1/DTD/svg11.dtd">
<!-- Creator: CorelDRAW X8 -->
<svg xmlns="http://www.w3.org/2000/svg" xml:space="preserve" width="10.8498in" height="8.26772in" version="1.1" style="shape-rendering:geometricPrecision; text-rendering:geometricPrecision; image-rendering:optimizeQuality; fill-rule:evenodd; clip-rule:evenodd"
viewBox="0 0 10850 8268"
 xmlns:xlink="http://www.w3.org/1999/xlink">
 <defs>
  <style type="text/css">
   <![CDATA[
    .str0 {stroke:black;stroke-width:5;stroke-linejoin:round}
    .fil0 {fill:none;fill-rule:nonzero}
   ]]>
  </style>
 </defs>
 <g id="Layer_x0020_1">
  <metadata id="CorelCorpID_0Corel-Layer"/>
  <g id="_428629986448">
   <path class="fil0 str0" d="M10445 0l-7469 0c-218,1 -393,176 -394,394"/>
   <path class="fil0 str0" d="M10850 7874l0 -3116c0,-64 -54,-107 -109,-107 -445,0 -662,236 -857,441 -195,205 -358,377 -727,377 -607,0 -900,-431 -900,-1335 0,-904 282,-1335 889,-1335 369,0 532,172 727,377 196,204 413,441 857,441 66,0 109,-54 109,-108l0 -3115c-1,-218 -176,-393 -394,-394"/>
   <path class="fil0 str0" d="M2987 8268l3111 0c65,0 108,-54 108,-108 0,-441 -228,-667 -434,-861 -206,-194 -380,-355 -380,-721 0,-614 434,-905 1335,-905 890,0 1335,302 1335,905 0,366 -174,527 -380,721 -206,194 -434,420 -434,861 0,65 54,108 108,108l3100 0c218,-1 393,-176 394,-394"/>
   <path class="fil0 str0" d="M10850 4758c0,-64 -54,-107 -109,-107 -445,0 -662,236 -857,441 -195,205 -358,377 -727,377 -607,0 -900,-431 -900,-1335 0,-904 282,-1335 889,-1335 369,0 532,172 727,377 196,204 413,441 857,441 66,0 109,-54 109,-108"/>
   <path class="fil0 str0" d="M2987 8268c-218,-1 -393,-176 -394,-394l0 -3116c0,-64 -54,-107 -108,-107 -445,0 -662,236 -857,441 -196,205 -359,377 -727,377 -608,0 -901,-431 -901,-1335 0,-904 282,-1335 890,-1335 369,0 531,172 727,377 195,204 412,441 857,441 65,0 108,-54 108,-108l0 -3115"/>
  </g>
 </g>
</svg>
