<?xml version="1.0" encoding="UTF-8"?>
<!DOCTYPE svg PUBLIC "-//W3C//DTD SVG 1.1//EN" "http://www.w3.org/Graphics/SVG/1.1/DTD/svg11.dtd">
<!-- Creator: CorelDRAW X8 -->
<svg xmlns="http://www.w3.org/2000/svg" xml:space="preserve" width="10.8281in" height="10.8735in" version="1.1" style="shape-rendering:geometricPrecision; text-rendering:geometricPrecision; image-rendering:optimizeQuality; fill-rule:evenodd; clip-rule:evenodd"
viewBox="0 0 10828 10873"
 xmlns:xlink="http://www.w3.org/1999/xlink">
 <defs>
  <style type="text/css">
   <![CDATA[
    .str0 {stroke:black;stroke-width:5;stroke-linejoin:round}
    .fil0 {fill:none;fill-rule:nonzero}
   ]]>
  </style>
 </defs>
 <g id="Layer_x0020_1">
  <metadata id="CorelCorpID_0Corel-Layer"/>
  <g id="_428797833776">
   <path class="fil0 str0" d="M7337 2606l3097 0c219,0 393,175 394,393"/>
   <path class="fil0 str0" d="M6097 2606l-3121 0c-218,0 -393,175 -394,393"/>
   <path class="fil0 str0" d="M10828 2999l0 7481c-1,218 -175,393 -394,393l-7447 0"/>
   <path class="fil0 str0" d="M2987 10873c-218,0 -393,-175 -394,-393l0 -3116c0,-65 -54,-108 -108,-108 -445,0 -662,237 -857,442 -196,204 -359,376 -727,376 -608,0 -901,-430 -901,-1334 0,-905 282,-1335 890,-1335 369,0 531,172 727,376 195,205 412,442 857,442 65,0 108,-54 108,-108l0 -3116"/>
   <path class="fil0 str0" d="M6097 2606c59,0 107,-49 107,-107 0,-445 -232,-659 -446,-862 -203,-194 -377,-358 -377,-726 0,-611 436,-911 1336,-911 901,0 1337,300 1337,911 0,368 -174,532 -378,726 -203,194 -445,417 -445,862 0,58 48,107 106,107"/>
   <path class="fil0 str0" d="M2593 7364c0,-65 -54,-108 -108,-108 -445,0 -662,237 -857,442 -196,204 -359,376 -727,376 -608,0 -901,-430 -901,-1334 0,-905 282,-1335 890,-1335 369,0 531,172 727,376 195,205 412,442 857,442 65,0 108,-54 108,-108"/>
  </g>
 </g>
</svg>
